<svg width="335" height="330" viewBox="0 0 335 330" fill="none" xmlns="http://www.w3.org/2000/svg">
<circle cx="165" cy="165" r="165" fill="#4C74AF"/>
<path d="M282.633 255.605L290.017 144.629C290.223 141.621 289.295 138.656 287.439 136.331L239.774 76.8107C237.403 73.8667 233.793 72.288 230.101 72.608L91.0063 84.512C86.5513 84.896 82.7151 87.9467 81.2301 92.32L50.8082 181.792C50.1894 183.627 50.0038 185.589 50.2926 187.509L60.5844 255.456L282.633 255.605Z" fill="#F4F4F4"/>
<path d="M102.226 183.499H81.3745V196.896H102.226V183.499Z" fill="#B2B6BB"/>
<path d="M102.226 183.499H97.792V196.896H102.226V183.499Z" fill="#61656D"/>
<path d="M71.8043 184.608L68.4424 167.456L68.5455 167.435L71.9074 184.587L71.8043 184.608Z" fill="#3F4249"/>
<path d="M72.7441 161.678L72.3025 183.967L72.4056 183.969L72.8472 161.68L72.7441 161.678Z" fill="#3F4249"/>
<path d="M77.678 165.775L72.5407 172.452L72.6216 172.519L77.7588 165.841L77.678 165.775Z" fill="#3F4249"/>
<path d="M74.4236 188.875L73.9079 188.085C73.3923 187.296 73.1242 186.357 73.1242 185.397V183.499H71.1442V185.397C71.1442 186.357 70.8761 187.296 70.3604 188.085L69.8448 188.875C68.7723 190.539 68.4423 192.608 68.9167 194.549L69.4942 196.896H74.7742L75.3517 194.549C75.8261 192.608 75.4754 190.539 74.4236 188.875Z" fill="#868A91"/>
<path d="M74.4239 188.875L73.9082 188.085C73.3926 187.296 73.1245 186.357 73.1245 185.397V183.499H72.547V185.227C72.547 186.293 72.8563 187.339 73.4132 188.235C74.2795 189.877 74.2795 191.755 73.9701 193.291C73.7845 194.208 73.4338 195.083 72.9595 195.872L72.5676 196.533C72.4232 196.768 72.1757 196.917 71.9076 196.917H74.7951L75.3726 194.571C75.8264 192.608 75.4757 190.539 74.4239 188.875Z" fill="#61656D"/>
<path d="M76.6262 172.638L70.515 177.883L70.581 177.965L76.692 172.72L76.6262 172.638Z" fill="#3F4249"/>
<path d="M71.3095 182.048L65.9058 176.757L65.9677 176.693L71.3714 181.963L71.3095 182.048Z" fill="#3F4249"/>
<path d="M74.6505 169.781L75.4961 165.941C75.8055 164.576 77.373 164 78.4455 164.875C79.4973 165.749 79.3117 167.477 78.0948 168.075L74.6505 169.781Z" fill="#434A8A"/>
<path opacity="0.3" d="M74.6505 169.781L75.4961 165.941C75.8055 164.576 77.373 164 78.4455 164.875C79.4973 165.749 79.3117 167.477 78.0948 168.075L74.6505 169.781Z" fill="white"/>
<path d="M79.1261 166.389C79.1261 167.072 78.7549 167.755 78.0742 168.075L74.6299 169.781L78.4249 164.875C78.9199 165.259 79.1467 165.835 79.1261 166.389Z" fill="#434A8A"/>
<path d="M72.6911 168.075L70.2574 162.869C69.3911 161.013 70.6905 158.859 72.6911 158.859C74.6711 158.859 75.9911 161.013 75.1249 162.869L72.6911 168.075Z" fill="#434A8A"/>
<path opacity="0.3" d="M72.6911 168.075L70.2574 162.869C69.3911 161.013 70.6905 158.859 72.6911 158.859C74.6711 158.859 75.9911 161.013 75.1249 162.869L72.6911 168.075Z" fill="white"/>
<path opacity="0.3" d="M72.8148 158.88L72.6911 168.075L75.1248 162.869C75.9704 161.056 74.7329 158.944 72.8148 158.88Z" fill="white"/>
<path d="M69.9893 175.008L66.4624 170.656C65.2043 169.099 65.9468 166.709 67.8443 166.219C69.7418 165.728 71.4949 167.456 71.103 169.44L69.9893 175.008Z" fill="#434A8A"/>
<path opacity="0.3" d="M71.103 169.44C71.4948 167.456 69.7417 165.728 67.8442 166.219L70.0098 174.987L71.103 169.44Z" fill="white"/>
<path d="M69.4944 180.192L67.8857 176.032C67.3082 174.539 65.4313 174.197 64.4001 175.371C63.3482 176.544 63.8638 178.443 65.3488 178.912L69.4944 180.192Z" fill="#434A8A"/>
<path opacity="0.3" d="M69.4944 180.192L67.8857 176.032C67.3082 174.539 65.4313 174.197 64.4001 175.371C63.3482 176.544 63.8638 178.443 65.3488 178.912L69.4944 180.192Z" fill="white"/>
<path opacity="0.3" d="M64.4621 175.285L69.4946 180.192L67.8858 176.032C67.3289 174.581 65.5139 174.219 64.4621 175.285Z" fill="white"/>
<path d="M72.1755 176.544L73.9286 172.149C74.5474 170.592 76.548 170.229 77.6411 171.488C78.7342 172.747 78.1773 174.752 76.5892 175.221L72.1755 176.544Z" fill="#434A8A"/>
<path opacity="0.3" d="M72.1755 176.544L73.9286 172.149C74.5474 170.592 76.548 170.229 77.6411 171.488C78.7342 172.747 78.1773 174.752 76.5892 175.221L72.1755 176.544Z" fill="white"/>
<path d="M72.382 181.941L72.3201 181.856L80.6938 177.12L80.7351 177.205L72.382 181.941Z" fill="#3F4249"/>
<path d="M73.7223 181.109L76.7542 176.821C77.8267 175.285 80.0954 175.456 80.9411 177.12C81.8073 178.784 80.6729 180.811 78.8579 180.896L73.7223 181.109Z" fill="#434A8A"/>
<path opacity="0.3" d="M73.7223 181.109L76.7542 176.821C77.8267 175.285 80.0954 175.456 80.9411 177.12C81.8073 178.784 80.6729 180.811 78.8579 180.896L73.7223 181.109Z" fill="white"/>
<path d="M81.0236 179.381C80.6523 180.213 79.8686 180.853 78.8579 180.896L73.7223 181.109L80.9411 177.12C81.333 177.888 81.3123 178.699 81.0236 179.381Z" fill="#434A8A"/>
<path opacity="0.3" d="M73.9286 172.149L72.1755 176.544L77.6411 171.488C76.548 170.251 74.568 170.592 73.9286 172.149Z" fill="white"/>
<path d="M107.754 198.325H121.593C121.985 198.325 122.294 198.005 122.294 197.6C122.294 197.195 121.985 196.875 121.593 196.875H107.754V198.325Z" fill="#B2B6BB"/>
<path d="M119.799 197.621H105.836V242.101H119.799V197.621Z" fill="#B2B6BB"/>
<path d="M106.269 197.621H63.5545V242.101H106.269V197.621Z" fill="#DADDDF"/>
<path d="M104.103 238.709H65.5549V203.808L104.103 203.851V238.709ZM65.8642 238.389H103.794V204.171H65.8642V238.389Z" fill="#B2B6BB"/>
<path d="M61.9664 198.325H107.775C108.166 198.325 108.476 198.005 108.476 197.6C108.476 197.195 108.166 196.875 107.775 196.875H61.9664C61.5745 196.875 61.2652 197.195 61.2652 197.6C61.2858 198.005 61.5952 198.325 61.9664 198.325Z" fill="#DADDDF"/>
<path d="M104.103 221.045H65.5549V221.365H104.103V221.045Z" fill="#B2B6BB"/>
<path d="M83.1689 209.419C83.7613 209.419 84.2414 208.922 84.2414 208.309C84.2414 207.697 83.7613 207.2 83.1689 207.2C82.5766 207.2 82.0964 207.697 82.0964 208.309C82.0964 208.922 82.5766 209.419 83.1689 209.419Z" fill="#B2B6BB"/>
<path opacity="0.15" d="M83.5607 208.309C83.5607 207.819 83.2514 207.413 82.8389 207.264C82.942 207.221 83.0657 207.2 83.1895 207.2C83.7876 207.2 84.262 207.691 84.262 208.309C84.262 208.928 83.7876 209.419 83.1895 209.419C83.0657 209.419 82.9626 209.397 82.8389 209.354C83.2514 209.205 83.5607 208.8 83.5607 208.309Z" fill="black"/>
<path d="M83.1689 226.592C83.7613 226.592 84.2414 226.095 84.2414 225.483C84.2414 224.87 83.7613 224.373 83.1689 224.373C82.5766 224.373 82.0964 224.87 82.0964 225.483C82.0964 226.095 82.5766 226.592 83.1689 226.592Z" fill="#B2B6BB"/>
<path opacity="0.15" d="M83.5607 225.483C83.5607 224.992 83.2514 224.586 82.8389 224.437C82.942 224.394 83.0657 224.373 83.1895 224.373C83.7876 224.373 84.262 224.864 84.262 225.483C84.262 226.101 83.7876 226.592 83.1895 226.592C83.0657 226.592 82.9626 226.57 82.8389 226.528C83.2514 226.378 83.5607 225.973 83.5607 225.483Z" fill="black"/>
<path d="M108.476 199.818L106.269 198.325H63.5545V199.008L108.476 199.818Z" fill="#B2B6BB"/>
<path d="M117.056 242.101L118.128 254.411C118.211 254.859 117.881 255.285 117.448 255.285C117.159 255.285 116.891 255.093 116.788 254.795L113.673 242.101H117.056Z" fill="#DADDDF"/>
<path d="M116.664 249.269L115.364 248.949L113.694 242.123H117.076L118.149 254.432C118.211 254.773 118.025 255.115 117.736 255.243L116.664 249.269Z" fill="#B2B6BB"/>
<path d="M104.907 242.101L105.98 254.411C106.062 254.859 105.732 255.285 105.299 255.285C105.011 255.285 104.742 255.093 104.639 254.795L101.525 242.101H104.907Z" fill="#DADDDF"/>
<path d="M103.773 243.467L101.834 243.083L101.504 242.101H104.887L105.959 254.411C106.021 254.752 105.836 255.093 105.547 255.221L103.773 243.467Z" fill="#B2B6BB"/>
<path d="M78.1363 242.101L77.0638 254.411C76.9813 254.859 77.3113 255.285 77.7444 255.285C78.0332 255.285 78.3013 255.093 78.4044 254.795L81.5188 242.101H78.1363Z" fill="#DADDDF"/>
<path d="M78.7345 248.651L77.5795 248.352L78.1363 242.101H81.5188L78.4045 254.795C78.3013 255.093 78.0332 255.285 77.7445 255.285C77.7238 255.285 77.7238 255.285 77.7032 255.285L78.7345 248.651Z" fill="#B2B6BB"/>
<path d="M65.6582 242.101L64.5857 254.411C64.5032 254.859 64.8332 255.285 65.2663 255.285C65.5551 255.285 65.8232 255.093 65.9263 254.795L69.0407 242.101H65.6582Z" fill="#DADDDF"/>
<path d="M66.9781 243.168L65.4931 242.891L65.6581 242.101H69.0406L65.9263 254.795C65.8231 255.093 65.555 255.285 65.2663 255.285C65.2456 255.285 65.2456 255.285 65.225 255.285L66.9781 243.168Z" fill="#B2B6BB"/>
<path d="M83.9318 225.035L76.5893 233.632L81.828 237.813L87.9743 232.011L83.9318 225.035Z" fill="#FC9D9D"/>
<path d="M77.5794 232.224L72.8975 235.936C72.3819 236.341 72.2375 237.088 72.5469 237.664L81.5394 254.837C81.725 255.221 82.1581 255.371 82.55 255.221C83.375 254.901 83.8288 253.984 83.5813 253.109L83.4781 252.704C82.9625 250.827 82.6944 248.907 82.6738 246.944L82.55 237.877C82.55 237.323 82.1581 236.832 81.6425 236.704C79.9306 236.299 78.6519 234.805 78.4456 232.992L78.4044 232.544C78.3219 232.181 77.8681 231.989 77.5794 232.224Z" fill="#242830"/>
<path d="M79.8483 229.728L103.526 201.312L103.278 161.589H116.251L114.333 204.128C114.313 205.941 113.591 207.669 112.312 208.928L84.8601 234.976L79.8483 229.728Z" fill="#3F4249"/>
<path d="M118.747 127.221L118.025 139.338L117.076 139.189L116.231 161.653L88.6755 161.568L88.2011 136.394L85.8911 121.333L94.8011 118.709L95.1105 118.624L96.2449 118.282L101.071 122.57L106.207 118.218L107.568 118.666C107.671 118.688 107.712 118.709 107.733 118.709H107.754C107.754 118.709 107.754 118.709 107.816 118.73L107.877 118.752L114.477 120.928C117.138 121.802 118.871 124.384 118.747 127.221Z" fill="#434A8A"/>
<path d="M81.4775 126.986L79.8688 150.453L90.305 146.144L92.5737 119.69L86.1388 121.29C83.5606 121.93 81.6631 124.234 81.4775 126.986Z" fill="#434A8A"/>
<path d="M100.329 123.616L98.5964 152.01L100.948 154.613L103.155 152.01L101.896 123.488L101.071 122.912L100.329 123.616Z" fill="#242830"/>
<path d="M138.671 125.067L123.697 149.429C122.583 151.243 119.964 150.987 119.18 149.003L115.22 138.784L118.334 124.683L122.872 137.909L131.534 125.067H138.671Z" fill="#434A8A"/>
<path d="M88.3871 242.485L95.1314 242.634L94.8014 248.032L88.5727 248.608L88.3871 242.485Z" fill="#FC9D9D"/>
<path d="M91.687 245.323C93.4814 245.323 94.9664 246.795 95.0283 248.651L95.0489 249.504C95.0695 249.845 95.1108 250.187 95.1933 250.507L96.1214 254.048C96.2864 254.667 95.8327 255.264 95.2345 255.264H87.562C86.902 255.264 86.4483 254.581 86.6958 253.941L88.0158 250.528C88.2014 250.059 88.3045 249.547 88.3252 249.035L88.3458 248.629C88.4077 246.816 89.872 245.323 91.687 245.323Z" fill="#242830"/>
<path opacity="0.2" d="M116.932 143.136L113.941 135.84C113.776 135.605 113.405 135.69 113.385 135.989L111.817 161.568L116.231 161.653L116.932 143.136Z" fill="black"/>
<path opacity="0.2" d="M111.817 161.589L109.362 204.277L88.1188 227.915L88.0569 221.536L86.9431 222.901L86.51 229.707L83.2719 233.312L84.86 234.976L112.415 208.821C113.632 207.627 114.333 205.984 114.333 204.256L116.251 161.589H111.817Z" fill="black"/>
<g opacity="0.2">
<path opacity="0.2" d="M99.6179 205.347L98.7659 221.429L99.0749 221.447L99.9269 205.364L99.6179 205.347Z" fill="black"/>
</g>
<path d="M107.465 140.661L108.723 138.741L109.032 136.693C109.053 136.608 109.115 136.544 109.197 136.523C109.754 136.395 110.29 136.779 110.373 137.355L110.765 139.829L115.158 139.509C115.488 139.509 115.777 139.765 115.818 140.107C115.859 140.491 115.55 140.832 115.179 140.832H114.828H115.199C115.57 140.832 115.9 141.131 115.921 141.515C115.962 141.92 115.674 142.304 115.261 142.325L114.931 142.347L115.302 142.304C115.674 142.261 116.004 142.56 116.045 142.944C116.086 143.328 115.797 143.669 115.426 143.712L114.993 143.755L115.612 143.691C115.88 143.669 116.127 143.883 116.169 144.16C116.189 144.437 116.004 144.672 115.756 144.715L108.084 145.995L105.072 146.912L105.877 140.789L107.465 140.661Z" fill="#FC9D9D"/>
<path opacity="0.2" d="M92.5737 142.069C91.2537 141.344 90.3669 139.979 90.2225 138.443L89.6037 131.872C89.5831 131.723 89.3975 131.723 89.3769 131.872L88.3456 142.581L86.015 142.859C85.9325 142.859 85.8706 142.944 85.8912 143.029C85.8912 143.115 85.9737 143.179 86.0562 143.157L107.486 140.64L107.733 140.256L92.5737 142.069Z" fill="black"/>
<path opacity="0.15" d="M116.169 144.181L116.148 144.139C116.086 143.84 115.798 143.648 115.53 143.712L115.447 143.733L109.074 144.736L107.362 140.661H106.888L105.114 140.875L105.65 146.784C105.65 146.784 108.641 145.952 108.744 145.931L109.301 145.845C111.281 145.504 115.261 144.843 115.674 144.779C116.251 144.651 116.169 144.181 116.169 144.181Z" fill="black"/>
<g opacity="0.15">
<path opacity="0.15" d="M113.281 140.832C113.281 140.747 113.343 140.683 113.426 140.683L115.736 140.491C115.633 140.704 115.426 140.853 115.199 140.853H115.179L113.446 141.003C113.364 140.981 113.281 140.917 113.281 140.832Z" fill="black"/>
</g>
<g opacity="0.15">
<path opacity="0.15" d="M113.384 142.432C113.384 142.347 113.426 142.283 113.508 142.261L115.839 141.941C115.756 142.155 115.55 142.304 115.323 142.325H115.303L113.529 142.581C113.467 142.581 113.405 142.517 113.384 142.432Z" fill="black"/>
</g>
<path opacity="0.2" d="M103.691 124.768L103.649 124.725L103.691 124.768L101.174 124.064L98.7614 124.789L94.8014 118.73L95.1108 118.645L99.0089 124.597L101.092 122.912L103.443 124.597L107.609 118.688C107.713 118.709 107.754 118.73 107.774 118.73H107.795C107.795 118.73 107.795 118.73 107.857 118.752L107.919 118.773L103.691 124.768Z" fill="black"/>
<path d="M80.5904 143.989L105.877 140.811L106.743 146.4L82.7767 153.632C81.1886 154.123 79.6211 152.757 79.8067 151.051L80.5904 143.989Z" fill="#434A8A"/>
<path opacity="0.2" d="M106.599 145.44L83.9527 151.05C81.9314 151.498 80.0339 149.813 80.1989 147.659L80.2402 147.189L79.8277 151.05C79.642 152.757 81.2095 154.123 82.7977 153.632L92.4089 150.709L106.764 146.379L106.599 145.44Z" fill="black"/>
<path d="M106.269 140.789L107.321 146.272L108.352 146.016L107.362 140.661L106.269 140.789Z" fill="#242830"/>
<path d="M107.362 144.693C108.011 144.693 108.537 144.149 108.537 143.477C108.537 142.806 108.011 142.261 107.362 142.261C106.713 142.261 106.186 142.806 106.186 143.477C106.186 144.149 106.713 144.693 107.362 144.693Z" fill="#242830"/>
<path opacity="0.2" d="M108.105 144.693L107.61 142.069C107.527 142.048 107.445 142.048 107.341 142.048C107.032 142.048 106.764 142.155 106.537 142.325L107.032 144.907C107.135 144.928 107.238 144.949 107.341 144.949C107.63 144.907 107.898 144.821 108.105 144.693Z" fill="black"/>
<path d="M107.362 144.544C107.931 144.544 108.393 144.066 108.393 143.477C108.393 142.888 107.931 142.411 107.362 142.411C106.793 142.411 106.331 142.888 106.331 143.477C106.331 144.066 106.793 144.544 107.362 144.544Z" fill="white"/>
<path d="M88.6758 161.589L88.2839 244.981H95.0902L101.793 175.712C101.814 175.307 102.123 175.008 102.515 175.008C102.907 175.008 103.216 175.328 103.237 175.712L103.423 182.112L104.475 161.589H88.6758Z" fill="#3F4249"/>
<path opacity="0.2" d="M102.494 174.987C98.4104 174.987 94.8423 178.421 94.8423 182.645L92.1817 244.96H95.0485L101.752 175.69C101.793 175.306 102.123 174.987 102.494 174.987Z" fill="black"/>
<path d="M116.148 164.128H88.6549L88.6755 161.589H116.251L116.148 164.128Z" fill="#242830"/>
<path d="M96.307 161.589H95.4201V164.341H96.307V161.589Z" fill="#3F4249"/>
<path d="M108.228 161.589H107.341V164.341H108.228V161.589Z" fill="#3F4249"/>
<path d="M104.041 164.128H100.803C100.473 164.128 100.205 163.851 100.205 163.509V162.208C100.205 161.867 100.473 161.589 100.803 161.589H104.041C104.371 161.589 104.639 161.867 104.639 162.208V163.509C104.639 163.851 104.371 164.128 104.041 164.128Z" fill="#B2B6BB"/>
<path d="M90.2639 248.842C90.2226 248.842 90.1608 248.821 90.1401 248.778C90.0989 248.714 90.1195 248.608 90.1814 248.565C90.202 248.565 91.687 247.541 93.1514 248.565C93.2133 248.608 93.2339 248.714 93.1926 248.778C93.1514 248.842 93.0483 248.864 92.9864 248.821C91.687 247.925 90.367 248.821 90.3464 248.821C90.3258 248.842 90.2845 248.842 90.2639 248.842Z" fill="#868A91"/>
<path d="M90.2639 249.76C90.2226 249.76 90.1608 249.739 90.1401 249.696C90.0989 249.632 90.1195 249.525 90.1814 249.483C90.202 249.483 91.687 248.459 93.1514 249.483C93.2133 249.525 93.2339 249.632 93.1926 249.696C93.1514 249.76 93.0483 249.781 92.9864 249.739C91.687 248.843 90.367 249.739 90.3464 249.739C90.3258 249.739 90.2845 249.76 90.2639 249.76Z" fill="#868A91"/>
<path d="M90.2639 250.656C90.2226 250.656 90.1608 250.635 90.1401 250.592C90.0989 250.528 90.1195 250.421 90.1814 250.379C90.202 250.379 91.687 249.355 93.1514 250.379C93.2133 250.421 93.2339 250.528 93.1926 250.592C93.1514 250.656 93.0483 250.677 92.9864 250.635C91.687 249.739 90.367 250.635 90.3464 250.635C90.3258 250.656 90.2845 250.656 90.2639 250.656Z" fill="#868A91"/>
<path d="M80.9619 240.181C80.8794 240.181 80.8175 240.117 80.8175 240.053C80.7969 239.968 80.8588 239.882 80.9413 239.882L82.5294 239.648C82.6119 239.626 82.6944 239.69 82.6944 239.776C82.715 239.861 82.6532 239.946 82.5707 239.946L80.9619 240.181Z" fill="#868A91"/>
<path d="M80.9825 241.291C80.9 241.291 80.8381 241.227 80.8381 241.163C80.8175 241.077 80.8794 240.992 80.9619 240.992L82.55 240.757C82.6325 240.736 82.715 240.8 82.715 240.885C82.7356 240.971 82.6738 241.056 82.5913 241.056L80.9825 241.291C81.0031 241.291 81.0031 241.291 80.9825 241.291Z" fill="#868A91"/>
<path d="M80.9825 242.528C80.9 242.528 80.8381 242.464 80.8381 242.4C80.8175 242.314 80.8794 242.229 80.9619 242.229L82.55 241.994C82.6325 241.973 82.715 242.037 82.715 242.122C82.7356 242.208 82.6738 242.293 82.5913 242.293L80.9825 242.528C81.0031 242.528 81.0031 242.528 80.9825 242.528Z" fill="#868A91"/>
<g opacity="0.2">
<path opacity="0.2" d="M88.6344 171.424L90.7587 164.064C90.7794 163.978 90.8619 163.936 90.9444 163.957C91.0269 163.978 91.0681 164.064 91.0475 164.149L88.6344 172.533V171.424Z" fill="black"/>
</g>
<g opacity="0.2">
<path opacity="0.2" d="M115.798 171.573L113.632 164.064C113.611 163.978 113.529 163.936 113.446 163.957C113.364 163.978 113.323 164.064 113.343 164.149L115.756 172.533L115.798 171.573Z" fill="black"/>
</g>
<g opacity="0.2">
<path opacity="0.2" d="M103.443 201.803C103.402 201.803 103.381 201.781 103.34 201.76C103.278 201.696 103.278 201.611 103.319 201.547L106.063 198.24C106.124 198.176 106.207 198.176 106.269 198.219C106.331 198.283 106.331 198.368 106.289 198.432L103.546 201.739C103.546 201.781 103.505 201.803 103.443 201.803Z" fill="black"/>
</g>
<path opacity="0.2" d="M121.944 139.104L122.872 137.909L121.738 134.603L121.098 138.741C121.057 139.147 121.696 139.424 121.944 139.104Z" fill="black"/>
<path opacity="0.2" d="M123.016 150.154C123.49 149.834 123.738 149.386 124.15 148.661L124.975 147.339V134.88L123.016 150.154Z" fill="black"/>
<path d="M101.071 122.912L106.248 118.219L105.485 107.595H96.905L96.2656 118.304L101.071 122.912Z" fill="#FC9D9D"/>
<path d="M106.64 103.861C106.64 103.861 107.712 116.021 101.257 116.107C94.9456 116.192 95.4612 104.011 95.4612 104.011L95.4818 100.512L103.649 99.5307L105.629 100.747L106.64 103.861Z" fill="#FC9D9D"/>
<path d="M105.279 101.045C105.279 101.045 107.403 99.7651 108.228 102.218C108.929 104.288 107.424 106.421 107.424 106.421L106.248 106.229C105.753 106.186 105.423 105.93 105.402 105.418L105.279 101.045Z" fill="#21252B"/>
<path d="M106.826 99.68C106.867 101.984 104.928 102.475 104.165 102.496L97.7713 102.667C97.2557 102.688 96.8432 103.115 96.8432 103.648V105.739C96.8432 106.016 96.6369 106.272 96.3482 106.293L95.9563 106.315L95.4819 106.848C93.0276 106.08 92.4088 98.6987 97.07 97.504C97.565 97.376 98.0188 97.0347 98.2663 96.5653C99.0088 95.1787 101.773 94.9653 103.051 96.6507C103.319 97.0133 103.67 97.184 104.103 97.2053C105.794 97.2693 106.805 98.4213 106.826 99.68Z" fill="#21252B"/>
<path d="M95.9149 107.04C95.8737 106.187 94.9249 105.696 94.2649 106.187L94.2443 106.208C93.0893 107.125 93.6255 110.24 96.0387 110.112L95.9149 107.04Z" fill="#FC9D9D"/>
<path d="M108.001 106.144L107.98 106.123C107.3 105.632 106.372 106.144 106.351 106.997L106.31 109.941C108.744 110.005 109.156 107.019 108.001 106.144Z" fill="#FC9D9D"/>
<path d="M96.2038 107.445C96.2038 107.595 96.08 107.723 95.915 107.723C95.75 107.723 95.6262 107.616 95.6056 107.488L95.4406 105.504L96.2244 105.589L96.2038 107.445Z" fill="#21252B"/>
<path d="M106.846 107.275C106.846 107.424 106.722 107.552 106.557 107.552C106.392 107.552 106.269 107.445 106.248 107.317L106.083 105.333L106.867 105.419L106.846 107.275Z" fill="#21252B"/>
<path d="M104.165 102.795C103.979 102.795 103.856 102.773 103.835 102.773C103.752 102.773 103.711 102.688 103.711 102.624C103.711 102.539 103.794 102.496 103.856 102.496C103.876 102.496 105.134 102.645 105.732 101.792C105.774 101.728 105.856 101.707 105.918 101.771C105.98 101.813 106.001 101.899 105.939 101.963C105.485 102.667 104.639 102.795 104.165 102.795Z" fill="#FC9D9D"/>
<path d="M99.0707 108.939C99.3783 108.939 99.6276 108.681 99.6276 108.363C99.6276 108.044 99.3783 107.787 99.0707 107.787C98.7632 107.787 98.5139 108.044 98.5139 108.363C98.5139 108.681 98.7632 108.939 99.0707 108.939Z" fill="#21252B"/>
<path d="M98.8024 108.426C98.8706 108.426 98.9261 108.369 98.9261 108.298C98.9261 108.228 98.8706 108.17 98.8024 108.17C98.7341 108.17 98.6786 108.228 98.6786 108.298C98.6786 108.369 98.7341 108.426 98.8024 108.426Z" fill="white"/>
<path d="M103.381 108.875C103.689 108.875 103.938 108.617 103.938 108.299C103.938 107.981 103.689 107.723 103.381 107.723C103.074 107.723 102.825 107.981 102.825 108.299C102.825 108.617 103.074 108.875 103.381 108.875Z" fill="#21252B"/>
<path d="M103.113 108.363C103.181 108.363 103.237 108.305 103.237 108.235C103.237 108.164 103.181 108.107 103.113 108.107C103.045 108.107 102.989 108.164 102.989 108.235C102.989 108.305 103.045 108.363 103.113 108.363Z" fill="white"/>
<g opacity="0.3">
<path opacity="0.3" d="M101.339 111.243H101.793C101.876 111.243 101.958 111.157 101.958 111.072C101.958 110.987 101.876 110.901 101.793 110.901H101.339C101.154 110.901 101.009 110.752 101.009 110.56C101.009 110.368 101.154 110.197 101.339 110.197C101.422 110.197 101.504 110.112 101.504 110.027C101.504 109.941 101.422 109.856 101.339 109.856C100.968 109.856 100.679 110.176 100.679 110.539C100.679 110.944 100.968 111.264 101.339 111.243Z" fill="black"/>
</g>
<path d="M105.031 106.848H102.598H102.268H100.143H100.123H97.3794C96.9256 106.848 96.575 107.211 96.575 107.68V108.32C96.575 109.557 97.5444 110.581 98.7613 110.581C99.9575 110.581 100.948 109.579 100.948 108.32V107.68C100.948 107.488 100.886 107.317 100.783 107.168H101.628C101.525 107.317 101.463 107.488 101.463 107.659V108.299C101.463 109.536 102.433 110.56 103.649 110.56C104.846 110.56 105.836 109.557 105.836 108.299V107.659C105.836 107.232 105.485 106.848 105.031 106.848ZM100.618 107.68V108.32C100.618 109.387 99.7719 110.24 98.7406 110.24C97.7094 110.24 96.8844 109.365 96.8844 108.299V107.659C96.8844 107.381 97.1113 107.168 97.3794 107.168H100.123H100.143C100.411 107.168 100.638 107.403 100.618 107.68ZM105.506 108.32C105.506 109.387 104.66 110.24 103.629 110.24C102.598 110.24 101.773 109.365 101.773 108.299V107.659C101.773 107.381 101.999 107.168 102.268 107.168H102.598H105.031C105.299 107.168 105.506 107.403 105.506 107.68V108.32Z" fill="#21252B"/>
<path d="M99.9161 112.074L102.659 112.032C102.721 112.032 102.783 112.096 102.762 112.181C102.288 113.61 100.37 113.653 99.8336 112.245V112.224C99.7924 112.16 99.8542 112.074 99.9161 112.074Z" fill="white"/>
<g opacity="0.3">
<path opacity="0.3" d="M95.2137 108.597C95.1312 108.597 95.0487 108.533 95.0487 108.448L95.0281 108.085C95.0075 107.701 94.925 107.445 94.76 107.296C94.6362 107.189 94.5125 107.189 94.4918 107.189C94.4094 107.189 94.3269 107.125 94.3269 107.04C94.3269 106.954 94.3887 106.869 94.4712 106.848C94.4918 106.848 94.7393 106.826 94.9662 107.018C95.1931 107.21 95.3168 107.573 95.3374 108.043L95.3581 108.405C95.3787 108.512 95.3168 108.576 95.2137 108.597C95.2343 108.597 95.2343 108.597 95.2137 108.597Z" fill="black"/>
</g>
<g opacity="0.3">
<path opacity="0.3" d="M107.114 108.427C107.197 108.427 107.279 108.363 107.279 108.277L107.3 107.915C107.3 107.531 107.382 107.253 107.527 107.125C107.65 106.997 107.774 107.019 107.774 107.019C107.857 107.019 107.939 106.955 107.939 106.869C107.939 106.784 107.877 106.699 107.795 106.699C107.774 106.699 107.527 106.677 107.3 106.891C107.073 107.104 106.949 107.445 106.949 107.936L106.929 108.299C106.949 108.341 107.011 108.405 107.114 108.427Z" fill="black"/>
</g>
<path opacity="0.15" d="M105.815 112.181L105.836 112.117C105.134 114.187 103.814 115.851 101.711 116.085H101.731C101.587 116.107 101.422 116.107 101.277 116.107C99.5861 116.128 98.2455 115.232 97.2968 113.461C97.2555 113.397 97.173 113.355 97.0905 113.397C97.0286 113.44 96.9874 113.525 97.0286 113.611C98.0393 115.488 99.4624 116.427 101.277 116.405C101.669 116.405 102.041 116.341 102.391 116.256C103.505 116.491 104.784 116.277 106.042 115.445L105.815 112.181Z" fill="black"/>
<path opacity="0.8" d="M72.5264 237.664L81.5189 254.837C81.7045 255.221 82.1376 255.371 82.5295 255.221C82.612 255.2 82.6945 255.157 82.7564 255.115L72.877 235.915C72.3614 236.341 72.217 237.067 72.5264 237.664Z" fill="black"/>
<path opacity="0.8" d="M87.5617 255.285H95.2342C95.8323 255.285 96.2655 254.709 96.1417 254.112H86.6542C86.5305 254.709 86.9636 255.285 87.5617 255.285Z" fill="black"/>
<path d="M107.403 143.733L106.764 143.52L106.784 143.413L107.341 143.605L107.733 142.923L107.836 142.987L107.403 143.733Z" fill="#242830"/>
<path d="M261.41 184.032H249.881V209.205H261.41V184.032Z" fill="#DADDDF"/>
<path d="M256.872 184.032H261.802V186.464H261.41V209.205H257.615V186.464H256.872V184.032Z" fill="#B2B6BB"/>
<path d="M256.749 184.032H249.881V186.464H256.749V184.032Z" fill="#DADDDF"/>
<path d="M258.956 186.464H249.881V186.784H258.956V186.464Z" fill="#B2B6BB"/>
<path d="M265.906 165.173H263.906H218.056V167.221H263.906V209.205H218.056V211.253H263.906V255.285H265.906V165.173Z" fill="white"/>
<path d="M189.965 95.4773C189.965 89.7813 194.131 85.088 199.494 84.4693V84.4053H200.67C206.589 84.4053 211.374 89.3547 211.374 95.4773C211.374 101.6 206.589 106.549 200.67 106.549H199.494V106.485C194.131 105.867 189.965 101.173 189.965 95.4773Z" fill="#B2B6BB"/>
<path d="M199.494 106.549C205.406 106.549 210.198 101.592 210.198 95.4773C210.198 89.3623 205.406 84.4053 199.494 84.4053C193.582 84.4053 188.789 89.3623 188.789 95.4773C188.789 101.592 193.582 106.549 199.494 106.549Z" fill="#868A91"/>
<path d="M199.494 105.333C204.757 105.333 209.023 100.921 209.023 95.4773C209.023 90.0341 204.757 85.6213 199.494 85.6213C194.231 85.6213 189.965 90.0341 189.965 95.4773C189.965 100.921 194.231 105.333 199.494 105.333Z" fill="white"/>
<path d="M199.494 105.333C204.757 105.333 209.023 100.921 209.023 95.4773C209.023 90.0341 204.757 85.6213 199.494 85.6213C194.231 85.6213 189.965 90.0341 189.965 95.4773C189.965 100.921 194.231 105.333 199.494 105.333Z" fill="#868A91"/>
<path opacity="0.9" d="M199.494 105.333C204.757 105.333 209.023 100.921 209.023 95.4773C209.023 90.0341 204.757 85.6213 199.494 85.6213C194.231 85.6213 189.965 90.0341 189.965 95.4773C189.965 100.921 194.231 105.333 199.494 105.333Z" fill="white"/>
<path d="M199.494 85.6213C199.659 85.6213 199.845 85.6213 200.01 85.6427C194.977 85.92 190.996 90.208 190.996 95.4773C190.996 100.747 194.998 105.035 200.01 105.312C199.845 105.312 199.68 105.333 199.494 105.333C194.235 105.333 189.965 100.917 189.965 95.4773C189.965 90.0373 194.235 85.6213 199.494 85.6213Z" fill="#B2B6BB"/>
<path d="M199.391 96.2453L202.546 89.7387C202.67 89.4827 202.567 89.184 202.319 89.056C202.072 88.928 201.783 89.0347 201.659 89.2907L198.958 94.88L195.328 93.0453C195.08 92.9173 194.791 93.024 194.668 93.28C194.544 93.536 194.647 93.8347 194.894 93.9627L199.391 96.2453Z" fill="#434A8A"/>
<path opacity="0.5" d="M191.326 100.555C190.46 99.0614 189.965 97.3333 189.965 95.4773C189.965 90.0373 194.235 85.6213 199.494 85.6213C199.762 85.6213 200.01 85.6427 200.278 85.664L191.326 100.555Z" fill="white"/>
<path opacity="0.5" d="M201.7 85.8987C202.154 86.0053 202.608 86.1547 203.041 86.3467L193.182 102.88C192.79 102.539 192.44 102.133 192.11 101.728L201.7 85.8987Z" fill="white"/>
<path d="M250.169 255.435H129.926C128.296 255.435 126.997 254.069 126.997 252.405V128.032C126.997 126.347 128.317 125.003 129.926 125.003H250.169C251.799 125.003 253.098 126.368 253.098 128.032V252.405C253.098 254.091 251.799 255.435 250.169 255.435Z" fill="#434A8A"/>
<path opacity="0.5" d="M250.169 255.435H129.926C128.296 255.435 126.997 254.069 126.997 252.405V128.032C126.997 126.347 128.317 125.003 129.926 125.003H250.169C251.799 125.003 253.098 126.368 253.098 128.032V252.405C253.098 254.091 251.799 255.435 250.169 255.435Z" fill="white"/>
<path d="M248.148 255.435H127.904C126.275 255.435 124.975 254.069 124.975 252.405V128.032C124.975 126.347 126.295 125.003 127.904 125.003H248.148C249.777 125.003 251.077 126.368 251.077 128.032V252.405C251.077 254.091 249.777 255.435 248.148 255.435Z" fill="#434A8A"/>
<path opacity="0.7" d="M248.148 255.435H127.904C126.275 255.435 124.975 254.069 124.975 252.405V128.032C124.975 126.347 126.295 125.003 127.904 125.003H248.148C249.777 125.003 251.077 126.368 251.077 128.032V252.405C251.077 254.091 249.777 255.435 248.148 255.435Z" fill="white"/>
<path d="M131.823 123.957C131.823 124.533 132.277 124.981 132.813 124.981H134.175L134.505 128.395C134.525 128.651 134.752 128.864 135 128.864C135.268 128.864 135.474 128.651 135.495 128.373L135.701 125.109C135.701 125.067 135.742 125.024 135.804 125.024C135.845 125.024 135.886 125.067 135.907 125.109L136.113 128.331C136.134 128.629 136.361 128.864 136.65 128.864C136.938 128.864 137.186 128.629 137.186 128.309L137.289 125.045L137.186 128.224C137.165 128.565 137.454 128.864 137.784 128.864C138.093 128.864 138.341 128.629 138.382 128.309L138.671 125.067L138.465 127.477C138.444 127.776 138.671 128.053 138.96 128.053C139.207 128.053 139.413 127.883 139.455 127.627L139.846 125.579C139.95 125.045 139.764 124.491 139.372 124.149C137.784 122.72 135.515 122.443 133.659 123.488L131.906 123.851C131.865 123.829 131.823 123.893 131.823 123.957Z" fill="#FC9D9D"/>
<g opacity="0.15">
<path opacity="0.15" d="M137.161 125.05L137.065 128.056L137.353 128.066L137.45 125.06L137.161 125.05Z" fill="black"/>
</g>
<g opacity="0.15">
<path opacity="0.15" d="M138.503 125.239L138.308 127.663L138.596 127.688L138.791 125.264L138.503 125.239Z" fill="black"/>
</g>
<path opacity="0.2" d="M134.174 125.003H132.813L133.638 124.192C133.803 124.021 134.092 124.128 134.112 124.384L134.174 125.003Z" fill="black"/>
<path d="M183.097 184.011H142.528C141.661 184.011 140.981 183.285 140.981 182.411V140.448C140.981 139.552 141.682 138.848 142.528 138.848H183.097C183.963 138.848 184.644 139.573 184.644 140.448V182.411C184.644 183.307 183.963 184.011 183.097 184.011Z" fill="#434A8A"/>
<path opacity="0.5" d="M183.097 184.011H142.528C141.661 184.011 140.981 183.285 140.981 182.411V140.448C140.981 139.552 141.682 138.848 142.528 138.848H183.097C183.963 138.848 184.644 139.573 184.644 140.448V182.411C184.644 183.307 183.963 184.011 183.097 184.011Z" fill="white"/>
<path d="M181.076 184.011H140.506C139.64 184.011 138.959 183.285 138.959 182.411V140.448C138.959 139.552 139.661 138.848 140.506 138.848H181.076C181.942 138.848 182.623 139.573 182.623 140.448V182.411C182.643 183.307 181.942 184.011 181.076 184.011Z" fill="white"/>
<path d="M170.35 169.739H151.252C150.571 169.739 150.035 169.163 150.035 168.48C150.035 167.776 150.592 167.221 151.252 167.221H170.35C171.031 167.221 171.567 167.797 171.567 168.48C171.567 169.184 171.031 169.739 170.35 169.739Z" fill="#61656D"/>
<path d="M175.321 174.667H146.281C145.931 174.667 145.642 174.368 145.642 174.005C145.642 173.643 145.931 173.344 146.281 173.344H175.321C175.672 173.344 175.961 173.643 175.961 174.005C175.981 174.368 175.672 174.667 175.321 174.667Z" fill="#B2B6BB"/>
<path d="M169.464 178.763H152.16C151.809 178.763 151.52 178.464 151.52 178.101C151.52 177.738 151.809 177.44 152.16 177.44H169.464C169.814 177.44 170.103 177.738 170.103 178.101C170.103 178.464 169.814 178.763 169.464 178.763Z" fill="#B2B6BB"/>
<path d="M162.451 144.096H160.801V144.267C156.965 145.056 154.057 148.576 154.057 152.779C154.057 156.981 156.944 160.501 160.801 161.291V161.461H162.451C167.092 161.461 170.845 157.579 170.845 152.779C170.845 147.979 167.092 144.096 162.451 144.096Z" fill="#434A8A"/>
<path d="M160.801 161.44C165.437 161.44 169.195 157.553 169.195 152.757C169.195 147.962 165.437 144.075 160.801 144.075C156.165 144.075 152.407 147.962 152.407 152.757C152.407 157.553 156.165 161.44 160.801 161.44Z" fill="#434A8A"/>
<path opacity="0.4" d="M160.801 161.44C165.437 161.44 169.195 157.553 169.195 152.757C169.195 147.962 165.437 144.075 160.801 144.075C156.165 144.075 152.407 147.962 152.407 152.757C152.407 157.553 156.165 161.44 160.801 161.44Z" fill="white"/>
<path d="M159.234 156.384L156.408 153.461C156.264 153.312 156.264 153.056 156.408 152.885L157.15 152.117C157.295 151.968 157.542 151.968 157.707 152.117L159.522 153.994L163.895 149.45C164.039 149.301 164.287 149.301 164.452 149.45L165.194 150.218C165.339 150.368 165.339 150.624 165.194 150.794L159.79 156.384C159.646 156.554 159.399 156.554 159.234 156.384Z" fill="white"/>
<path d="M237.547 184.011H196.978C196.111 184.011 195.431 183.285 195.431 182.411V140.448C195.431 139.552 196.132 138.848 196.978 138.848H237.547C238.413 138.848 239.094 139.573 239.094 140.448V182.411C239.115 183.307 238.413 184.011 237.547 184.011Z" fill="#434A8A"/>
<path opacity="0.5" d="M237.547 184.011H196.978C196.111 184.011 195.431 183.285 195.431 182.411V140.448C195.431 139.552 196.132 138.848 196.978 138.848H237.547C238.413 138.848 239.094 139.573 239.094 140.448V182.411C239.115 183.307 238.413 184.011 237.547 184.011Z" fill="white"/>
<path d="M235.526 184.011H194.977C194.111 184.011 193.43 183.285 193.43 182.411V140.448C193.43 139.552 194.131 138.848 194.977 138.848H235.546C236.412 138.848 237.093 139.573 237.093 140.448V182.411C237.093 183.307 236.392 184.011 235.526 184.011Z" fill="white"/>
<path d="M224.801 169.739H205.702C205.021 169.739 204.485 169.163 204.485 168.48C204.485 167.776 205.042 167.221 205.702 167.221H224.801C225.481 167.221 226.017 167.797 226.017 168.48C226.038 169.184 225.481 169.739 224.801 169.739Z" fill="#61656D"/>
<path d="M229.771 174.667H200.731C200.381 174.667 200.092 174.368 200.092 174.005C200.092 173.643 200.381 173.344 200.731 173.344H229.771C230.122 173.344 230.411 173.643 230.411 174.005C230.431 174.368 230.143 174.667 229.771 174.667Z" fill="#B2B6BB"/>
<path d="M223.914 178.763H206.609C206.259 178.763 205.97 178.464 205.97 178.101C205.97 177.738 206.259 177.44 206.609 177.44H223.914C224.264 177.44 224.553 177.738 224.553 178.101C224.553 178.464 224.264 178.763 223.914 178.763Z" fill="#B2B6BB"/>
<path d="M216.901 144.096H215.251V144.267C211.415 145.056 208.507 148.576 208.507 152.779C208.507 156.981 211.394 160.501 215.251 161.291V161.461H216.901C221.542 161.461 225.295 157.579 225.295 152.779C225.295 147.979 221.542 144.096 216.901 144.096Z" fill="#434A8A"/>
<path d="M223.542 154.148C224.285 149.414 221.177 144.954 216.6 144.186C212.025 143.418 207.713 146.632 206.97 151.366C206.228 156.099 209.335 160.559 213.911 161.327C218.487 162.096 222.8 158.881 223.542 154.148Z" fill="#434A8A"/>
<path opacity="0.4" d="M223.542 154.148C224.285 149.414 221.177 144.954 216.6 144.186C212.025 143.418 207.713 146.632 206.97 151.366C206.228 156.099 209.335 160.559 213.911 161.327C218.487 162.096 222.8 158.881 223.542 154.148Z" fill="white"/>
<path d="M213.705 156.384L210.879 153.461C210.735 153.312 210.735 153.056 210.879 152.885L211.621 152.117C211.766 151.968 212.013 151.968 212.178 152.117L213.993 153.995L218.366 149.451C218.51 149.301 218.758 149.301 218.923 149.451L219.665 150.219C219.81 150.368 219.81 150.624 219.665 150.795L214.261 156.384C214.096 156.555 213.849 156.555 213.705 156.384Z" fill="white"/>
<path d="M183.097 243.275H142.528C141.661 243.275 140.981 242.549 140.981 241.675V199.712C140.981 198.816 141.682 198.112 142.528 198.112H183.097C183.963 198.112 184.644 198.837 184.644 199.712V241.675C184.644 242.549 183.963 243.275 183.097 243.275Z" fill="#434A8A"/>
<path opacity="0.5" d="M183.097 243.275H142.528C141.661 243.275 140.981 242.549 140.981 241.675V199.712C140.981 198.816 141.682 198.112 142.528 198.112H183.097C183.963 198.112 184.644 198.837 184.644 199.712V241.675C184.644 242.549 183.963 243.275 183.097 243.275Z" fill="white"/>
<path d="M181.076 243.275H140.506C139.64 243.275 138.959 242.549 138.959 241.675V199.712C138.959 198.816 139.661 198.112 140.506 198.112H181.076C181.942 198.112 182.623 198.837 182.623 199.712V241.675C182.643 242.549 181.942 243.275 181.076 243.275Z" fill="white"/>
<path d="M170.35 229.003H151.252C150.571 229.003 150.035 228.427 150.035 227.744C150.035 227.04 150.592 226.485 151.252 226.485H170.35C171.031 226.485 171.567 227.061 171.567 227.744C171.567 228.448 171.031 229.003 170.35 229.003Z" fill="#61656D"/>
<path d="M175.321 233.931H146.281C145.931 233.931 145.642 233.632 145.642 233.269C145.642 232.907 145.931 232.608 146.281 232.608H175.321C175.672 232.608 175.961 232.907 175.961 233.269C175.981 233.632 175.672 233.931 175.321 233.931Z" fill="#B2B6BB"/>
<path d="M169.464 238.027H152.16C151.809 238.027 151.52 237.728 151.52 237.365C151.52 237.003 151.809 236.704 152.16 236.704H169.464C169.814 236.704 170.103 237.003 170.103 237.365C170.103 237.728 169.814 238.027 169.464 238.027Z" fill="#B2B6BB"/>
<path d="M162.451 203.36H160.801V203.531C156.965 204.32 154.057 207.84 154.057 212.043C154.057 216.245 156.944 219.765 160.801 220.555V220.725H162.451C167.092 220.725 170.845 216.843 170.845 212.043C170.845 207.243 167.092 203.36 162.451 203.36Z" fill="#434A8A"/>
<path d="M160.801 220.704C165.437 220.704 169.195 216.817 169.195 212.021C169.195 207.226 165.437 203.339 160.801 203.339C156.165 203.339 152.407 207.226 152.407 212.021C152.407 216.817 156.165 220.704 160.801 220.704Z" fill="#434A8A"/>
<path opacity="0.4" d="M160.801 220.704C165.437 220.704 169.195 216.817 169.195 212.021C169.195 207.226 165.437 203.339 160.801 203.339C156.165 203.339 152.407 207.226 152.407 212.021C152.407 216.817 156.165 220.704 160.801 220.704Z" fill="white"/>
<path d="M159.234 215.648L156.408 212.725C156.264 212.576 156.264 212.32 156.408 212.149L157.15 211.381C157.295 211.232 157.542 211.232 157.707 211.381L159.522 213.259L163.895 208.715C164.039 208.565 164.287 208.565 164.452 208.715L165.194 209.483C165.339 209.632 165.339 209.888 165.194 210.059L159.79 215.648C159.646 215.819 159.399 215.819 159.234 215.648Z" fill="white"/>
<path d="M237.547 243.275H196.978C196.111 243.275 195.431 242.549 195.431 241.675V199.712C195.431 198.816 196.132 198.112 196.978 198.112H237.547C238.413 198.112 239.094 198.837 239.094 199.712V241.675C239.115 242.549 238.413 243.275 237.547 243.275Z" fill="#434A8A"/>
<path opacity="0.5" d="M237.547 243.275H196.978C196.111 243.275 195.431 242.549 195.431 241.675V199.712C195.431 198.816 196.132 198.112 196.978 198.112H237.547C238.413 198.112 239.094 198.837 239.094 199.712V241.675C239.115 242.549 238.413 243.275 237.547 243.275Z" fill="white"/>
<path d="M235.526 243.275H194.977C194.111 243.275 193.43 242.549 193.43 241.675V199.712C193.43 198.816 194.131 198.112 194.977 198.112H235.546C236.412 198.112 237.093 198.837 237.093 199.712V241.675C237.093 242.549 236.392 243.275 235.526 243.275Z" fill="white"/>
<path d="M224.801 229.003H205.702C205.021 229.003 204.485 228.427 204.485 227.744C204.485 227.04 205.042 226.485 205.702 226.485H224.801C225.481 226.485 226.017 227.061 226.017 227.744C226.038 228.448 225.481 229.003 224.801 229.003Z" fill="#61656D"/>
<path d="M229.771 233.931H200.731C200.381 233.931 200.092 233.632 200.092 233.269C200.092 232.907 200.381 232.608 200.731 232.608H229.771C230.122 232.608 230.411 232.907 230.411 233.269C230.431 233.632 230.143 233.931 229.771 233.931Z" fill="#B2B6BB"/>
<path d="M223.914 238.027H206.609C206.259 238.027 205.97 237.728 205.97 237.365C205.97 237.003 206.259 236.704 206.609 236.704H223.914C224.264 236.704 224.553 237.003 224.553 237.365C224.553 237.728 224.264 238.027 223.914 238.027Z" fill="#B2B6BB"/>
<path d="M216.901 203.36H215.251V203.531C211.415 204.32 208.507 207.84 208.507 212.043C208.507 216.245 211.394 219.765 215.251 220.555V220.725H216.901C221.542 220.725 225.295 216.843 225.295 212.043C225.295 207.243 221.542 203.36 216.901 203.36Z" fill="#434A8A"/>
<path d="M223.542 213.413C224.285 208.679 221.179 204.219 216.602 203.451C212.025 202.683 207.714 205.897 206.971 210.631C206.228 215.364 209.336 219.824 213.913 220.592C218.489 221.361 222.8 218.146 223.542 213.413Z" fill="#434A8A"/>
<path opacity="0.4" d="M223.542 213.413C224.285 208.679 221.179 204.219 216.602 203.451C212.025 202.683 207.714 205.897 206.971 210.631C206.228 215.364 209.336 219.824 213.913 220.592C218.489 221.361 222.8 218.146 223.542 213.413Z" fill="white"/>
<path d="M213.705 215.648L210.879 212.725C210.735 212.576 210.735 212.32 210.879 212.149L211.621 211.381C211.766 211.232 212.013 211.232 212.178 211.381L213.993 213.259L218.366 208.715C218.51 208.565 218.758 208.565 218.923 208.715L219.665 209.483C219.81 209.632 219.81 209.888 219.665 210.059L214.261 215.648C214.096 215.819 213.849 215.819 213.705 215.648Z" fill="white"/>
<path d="M207.496 251.659C205.97 251.659 204.733 252.939 204.733 254.517C204.733 254.859 205.001 255.136 205.331 255.136H209.765C210.26 255.136 210.714 254.837 210.92 254.347L216.695 240.949L210.219 233.205C210.322 233.568 207.496 251.659 207.496 251.659Z" fill="#3F4249"/>
<path d="M239.485 240.629H228.513L232.927 245.003C233.566 245.643 233.855 246.56 233.69 247.477L232.906 251.659C231.442 251.659 230.266 252.875 230.266 254.389V254.517C230.266 254.859 230.534 255.136 230.864 255.136H234.886C235.36 255.136 235.814 254.859 236.02 254.411L239.795 246.496C240.29 245.451 240.414 244.235 240.125 243.104L239.485 240.629Z" fill="#3F4249"/>
<path d="M245.446 231.669C247.756 230.944 252.046 228.384 254.026 225.76C254.171 225.547 254.171 225.269 254.026 225.056C253.861 224.843 253.573 224.8 253.346 224.928C235.938 235.083 218.077 223.051 218.077 223.051C217.829 221.621 216.984 220.405 215.767 219.68C213.333 218.251 210.343 218.251 207.888 219.659C207.043 220.149 206.032 220.256 205.104 219.915L202.381 218.912C201.907 218.741 201.391 219.061 201.35 219.595L201.268 220.427C200.999 222.901 201.845 225.376 203.536 227.147L215.21 239.392C216.53 240.779 217.128 242.72 216.86 244.64L215.829 251.68C214.303 251.68 213.065 252.96 213.065 254.539C213.065 254.88 213.333 255.157 213.663 255.157H218.098C218.593 255.157 219.046 254.859 219.253 254.368L225.131 240.651H236.784L241.198 245.024C241.837 245.664 242.126 246.581 241.961 247.499L241.177 251.68C239.713 251.68 238.537 252.896 238.537 254.411C238.537 254.837 238.867 255.157 239.259 255.157H243.136C243.611 255.157 244.064 254.88 244.271 254.432L248.045 246.517C248.54 245.472 248.664 244.256 248.375 243.125L245.446 231.669Z" fill="#868A91"/>
<path d="M210.401 221.512C210.715 221.187 210.793 220.742 210.576 220.517C210.358 220.292 209.927 220.373 209.613 220.698C209.299 221.023 209.221 221.468 209.438 221.693C209.656 221.918 210.087 221.837 210.401 221.512Z" fill="#3F4249"/>
<path d="M242.847 237.6C242.847 240.032 244.745 241.995 247.096 241.995C247.405 241.995 247.715 241.952 248.024 241.888L245.9 233.397C244.126 233.909 242.847 235.595 242.847 237.6Z" fill="#3F4249"/>
<path d="M224.327 242.4L223.563 242.08C222.532 241.653 221.377 241.909 220.593 242.72C219.954 243.403 219.686 244.363 219.871 245.301L220.016 245.941C220.119 246.453 220.098 246.987 219.933 247.499L219.871 247.669C219.459 248.907 219.686 250.272 220.511 251.296L224.327 242.4Z" fill="#3F4249"/>
<path d="M219.17 223.755L219.913 228.469C220.325 231.115 222.614 232.843 224.924 232.267L227.069 231.733C227.544 231.605 228.059 231.605 228.534 231.691L233.133 232.608C235.381 233.056 237.629 231.904 238.826 229.707L239.197 229.024C229.833 229.301 221.996 225.376 219.17 223.755Z" fill="#3F4249"/>
<path d="M248.292 227.296C248.725 227.637 249.262 227.829 249.86 227.829C251.2 227.829 252.314 226.784 252.459 225.44C251.056 226.187 249.674 226.805 248.292 227.296Z" fill="#3F4249"/>
<path d="M207.166 225.312C206.548 224.437 206.3 223.349 206.424 222.283L206.713 220.107C206.176 220.192 205.619 220.149 205.104 219.957L202.381 218.955C201.907 218.784 201.391 219.104 201.35 219.637L201.268 220.469C200.999 222.944 201.845 225.419 203.536 227.189L206.96 230.773L207.455 229.835C208.198 228.384 208.094 226.635 207.166 225.312Z" fill="#B2B6BB"/>
<path d="M217.52 223.883L219.644 229.408C220.18 230.709 219.665 232.437 218.531 233.205C217.19 234.123 215.375 234.187 213.601 232.416C211.188 230.027 212.199 224.715 213.436 222.688" fill="#3F4249"/>
<path d="M236.722 240.651L234.391 238.027L236.35 242.443L236.722 240.651Z" fill="#3F4249"/>
<path d="M204.031 219.552L202.402 218.955C201.907 218.763 201.37 219.125 201.309 219.659L201.185 220.853C201.391 220.896 201.597 220.939 201.804 220.939C202.773 220.917 203.619 220.363 204.031 219.552Z" fill="#3F4249"/>
<path d="M217.314 223.349L219.541 229.067C219.871 229.899 219.583 230.859 218.84 231.328C217.747 232.032 215.973 232.523 214.055 230.624C212.013 228.597 212.302 224.288 213.622 222.347" fill="#868A91"/>
<path d="M216.86 232.096C215.994 232.096 215.004 231.733 213.972 230.709C213.003 229.749 212.467 228.235 212.446 226.421C212.426 224.821 212.838 223.221 213.519 222.219C213.56 222.155 213.642 222.133 213.704 222.176C213.766 222.219 213.787 222.304 213.746 222.368C212.508 224.16 212.137 228.448 214.158 230.475C216.014 232.309 217.685 231.861 218.778 231.157C219.459 230.709 219.727 229.856 219.417 229.088L217.19 223.371C217.169 223.307 217.19 223.221 217.272 223.179C217.334 223.157 217.417 223.179 217.458 223.264L219.686 228.981C220.057 229.877 219.727 230.901 218.943 231.413C218.366 231.797 217.664 232.096 216.86 232.096Z" fill="#3F4249"/>
<path d="M225.069 240.651C225.069 240.651 227.544 237.621 234.391 238.005L235.546 240.651H225.069Z" fill="#B2B6BB"/>
<path d="M245.281 230.944L245.446 231.691C245.446 231.691 247.199 231.115 248.767 230.133L245.281 230.944Z" fill="#3F4249"/>
<path d="M203.66 223.819C203.103 223.819 202.629 223.648 202.257 223.328C201.082 222.304 201.267 220.064 201.267 219.957C201.267 219.872 201.35 219.829 201.412 219.829C201.494 219.829 201.535 219.915 201.535 219.979C201.535 220 201.35 222.176 202.422 223.093C202.938 223.541 203.66 223.627 204.588 223.371C204.67 223.349 204.732 223.392 204.753 223.477C204.774 223.563 204.732 223.627 204.65 223.648C204.32 223.776 203.969 223.819 203.66 223.819Z" fill="#3F4249"/>
<path d="M278.302 165.173H265.906V255.285H278.302V165.173Z" fill="#DADDDF"/>
<path d="M289.047 255.947H55.3868C55.2424 255.947 55.1393 255.84 55.1393 255.691C55.1393 255.541 55.2424 255.435 55.3868 255.285H289.027C289.274 255.328 289.274 255.541 289.274 255.691C289.274 255.819 289.171 255.947 289.047 255.947Z" fill="#DADDDF"/>
</svg>
